<svg width="56" height="56" viewBox="0 0 56 56" fill="none" xmlns="http://www.w3.org/2000/svg">
<rect x="4" y="4" width="48" height="48" rx="24" fill="#EAECF5"/>
<rect x="4" y="4" width="48" height="48" rx="24" stroke="#F8F9FC" stroke-width="8"/>
<path d="M34 18L38 22M18 38L19.2764 33.3199C19.3597 33.0145 19.4013 32.8619 19.4652 32.7195C19.522 32.5931 19.5917 32.4729 19.6733 32.3609C19.7652 32.2348 19.8771 32.1229 20.1009 31.8991L30.4343 21.5657C30.6323 21.3677 30.7313 21.2687 30.8455 21.2316C30.9459 21.1989 31.0541 21.1989 31.1545 21.2316C31.2687 21.2687 31.3677 21.3677 31.5657 21.5657L34.4343 24.4343C34.6323 24.6323 34.7313 24.7313 34.7684 24.8455C34.8011 24.9459 34.8011 25.0541 34.7684 25.1545C34.7313 25.2687 34.6323 25.3677 34.4343 25.5657L24.1009 35.8991C23.8771 36.1229 23.7652 36.2348 23.6391 36.3267C23.5271 36.4083 23.4069 36.478 23.2805 36.5348C23.1381 36.5987 22.9855 36.6403 22.6801 36.7236L18 38Z" stroke="#3E4784" stroke-width="2" stroke-linecap="round" stroke-linejoin="round"/>
</svg>
