<svg width="56" height="56" viewBox="0 0 56 56" fill="none" xmlns="http://www.w3.org/2000/svg">
<rect x="4" y="4" width="48" height="48" rx="24" fill="#EAECF5"/>
<rect x="4" y="4" width="48" height="48" rx="24" stroke="#F8F9FC" stroke-width="8"/>
<path d="M22 27V31M34 25V29M33 20C35.4487 20 36.7731 20.3748 37.4321 20.6654C37.5199 20.7042 37.5638 20.7235 37.6904 20.8444C37.7663 20.9168 37.9049 21.1294 37.9405 21.2281C38 21.3927 38 21.4827 38 21.6627V32.4111C38 33.3199 38 33.7743 37.8637 34.0079C37.7251 34.2454 37.5914 34.3559 37.3319 34.4472C37.0769 34.5369 36.562 34.438 35.5322 34.2401C34.8114 34.1017 33.9565 34 33 34C30 34 27 36 23 36C20.5513 36 19.2269 35.6252 18.5679 35.3346C18.4801 35.2958 18.4362 35.2765 18.3096 35.1556C18.2337 35.0832 18.0951 34.8706 18.0595 34.7719C18 34.6073 18 34.5173 18 34.3373L18 23.5889C18 22.6801 18 22.2257 18.1363 21.9921C18.2749 21.7546 18.4086 21.6441 18.6681 21.5528C18.9231 21.4631 19.438 21.562 20.4678 21.7598C21.1886 21.8983 22.0435 22 23 22C26 22 29 20 33 20ZM30.5 28C30.5 29.3807 29.3807 30.5 28 30.5C26.6193 30.5 25.5 29.3807 25.5 28C25.5 26.6193 26.6193 25.5 28 25.5C29.3807 25.5 30.5 26.6193 30.5 28Z" stroke="#3E4784" stroke-width="2" stroke-linecap="round" stroke-linejoin="round"/>
</svg>
