<svg width="56" height="56" viewBox="0 0 56 56" fill="none" xmlns="http://www.w3.org/2000/svg">
<rect x="4" y="4" width="48" height="48" rx="24" fill="#EAECF5"/>
<rect x="4" y="4" width="48" height="48" rx="24" stroke="#F8F9FC" stroke-width="8"/>
<path d="M36 23V22.8C36 21.1198 36 20.2798 35.673 19.638C35.3854 19.0735 34.9265 18.6146 34.362 18.327C33.7202 18 32.8802 18 31.2 18H24.8C23.1198 18 22.2798 18 21.638 18.327C21.0735 18.6146 20.6146 19.0735 20.327 19.638C20 20.2798 20 21.1198 20 22.8V33.2C20 34.8802 20 35.7202 20.327 36.362C20.6146 36.9265 21.0735 37.3854 21.638 37.673C22.2798 38 23.1198 38 24.8 38H28.5M28.5 27H24M27.5 31H24M32 23H24M34 34V28.5C34 27.6716 34.6716 27 35.5 27C36.3284 27 37 27.6716 37 28.5V34C37 35.6569 35.6569 37 34 37C32.3431 37 31 35.6569 31 34V30" stroke="#3E4784" stroke-width="2" stroke-linecap="round" stroke-linejoin="round"/>
</svg>
