<?xml version="1.0" encoding="UTF-8"?>
<svg version="1.1" xmlns="http://www.w3.org/2000/svg" width="512" height="512">
<path d="M0 0 C8.85094959 7.61207209 15.35018196 16.90578866 19.3125 27.875 C19.704375 28.95910156 20.09625 30.04320312 20.5 31.16015625 C25.01738964 45.57502111 25.90426307 62.96884742 19.3125 76.875 C17.37251517 80.24608986 15.36126256 83.56906073 13.3125 86.875 C14.59882324 86.8435791 14.59882324 86.8435791 15.91113281 86.81152344 C19.10168472 86.74323473 22.29186346 86.69314487 25.48291016 86.65527344 C26.8622668 86.63519358 28.24153869 86.60792334 29.62060547 86.57324219 C31.60606979 86.52457183 33.59216254 86.50413582 35.578125 86.484375 C37.36911621 86.4529541 37.36911621 86.4529541 39.19628906 86.42089844 C42.3125 86.875 42.3125 86.875 44.73339844 88.64941406 C46.3125 90.875 46.3125 90.875 46.3125 94.875 C51.5925 94.875 56.8725 94.875 62.3125 94.875 C62.6425 92.895 62.9725 90.915 63.3125 88.875 C66.96885032 86.43743312 69.70492976 86.57922973 73.93334961 86.58447266 C75.09479744 86.57439682 75.09479744 86.57439682 76.27970886 86.56411743 C78.8414856 86.5451061 81.40300084 86.54121181 83.96484375 86.5390625 C85.74459441 86.53263718 87.52434399 86.52590902 89.30409241 86.51889038 C93.03567962 86.50691009 96.7671742 86.50321037 100.4987793 86.50439453 C105.28186307 86.50459786 110.06435362 86.47728458 114.84729671 86.44285011 C118.52330762 86.42062069 122.1991748 86.41655575 125.87524605 86.41761398 C127.63871876 86.41525248 129.40219511 86.4063981 131.16560173 86.39094925 C133.63157681 86.37136695 136.09626028 86.37709571 138.56225586 86.38916016 C139.2912207 86.37792114 140.02018555 86.36668213 140.77124023 86.35510254 C144.1415181 86.3970325 146.01085165 86.65470269 148.76368713 88.66513062 C151.1264293 92.03632652 150.90568217 95.40953657 150.8125 99.375 C150.79896484 100.21232666 150.78542969 101.04965332 150.77148438 101.91235352 C149.82436842 131.49045445 136.95444825 157.30856849 117.3125 178.875 C116.72082031 179.53757812 116.12914062 180.20015625 115.51953125 180.8828125 C99.62860246 197.75466282 77.5903492 208.589794 55.125 213.3125 C53.98780518 213.5585498 53.98780518 213.5585498 52.82763672 213.80957031 C45.35729562 215.22240825 37.88343744 215.0166364 30.3125 214.875 C30.32138245 215.61780212 30.33026489 216.36060425 30.3394165 217.12591553 C30.41959744 224.12949905 30.48048186 231.13292335 30.51974869 238.13683701 C30.54061513 241.73758286 30.56891421 245.33794916 30.61425781 248.93847656 C30.65775125 252.41387913 30.68164421 255.88891688 30.69200897 259.36457062 C30.70298615 261.33445784 30.734207 263.30419847 30.76568604 265.27386475 C30.76598816 266.47480774 30.76629028 267.67575073 30.76660156 268.91308594 C30.77548401 269.97009705 30.78436646 271.02710815 30.79351807 272.1161499 C30.15635918 275.77053628 29.31312964 276.68607281 26.3125 278.875 C23.22930047 279.47497221 20.18351718 279.41440188 17.05078125 279.38293457 C16.10280167 279.38917453 15.15482208 279.3954145 14.17811584 279.40184355 C10.9934928 279.41783082 7.80962907 279.40514664 4.625 279.39257812 C2.34521029 279.39799668 0.06542408 279.40511783 -2.21435547 279.41381836 C-8.4126236 279.43208619 -14.61062603 279.42496977 -20.80889893 279.41230202 C-27.28797129 279.40219233 -33.76702052 279.41156204 -40.24609375 279.41784668 C-51.8251373 279.42559578 -63.40405932 279.41314589 -74.98308372 279.39280933 C-85.48357417 279.37493805 -95.98388775 279.37804208 -106.484375 279.39648438 C-118.67567979 279.41788625 -130.8668586 279.42586079 -143.05818176 279.41403532 C-149.51262663 279.40779123 -155.96694963 279.40698999 -162.42138672 279.42018127 C-168.48875082 279.43171475 -174.55578008 279.42375954 -180.62310791 279.40060425 C-182.85320479 279.3953038 -185.08332972 279.39685361 -187.31341553 279.40565491 C-190.35125445 279.41654098 -193.38801177 279.40293033 -196.42578125 279.38293457 C-197.75826149 279.3963189 -197.75826149 279.3963189 -199.11766052 279.40997362 C-205.07543876 279.33359448 -205.07543876 279.33359448 -208.23461151 276.9665451 C-209.82871225 274.67171406 -210.19232923 273.57529806 -210.20507812 270.8125 C-210.21768677 270.02488281 -210.23029541 269.23726563 -210.24328613 268.42578125 C-210.23518921 267.58402344 -210.22709229 266.74226563 -210.21875 265.875 C-210.22449036 264.56595703 -210.22449036 264.56595703 -210.23034668 263.23046875 C-210.2330649 261.38800908 -210.22570994 259.54551076 -210.20898438 257.703125 C-210.18757248 254.88454066 -210.20878801 252.06850515 -210.234375 249.25 C-210.23173171 247.45832771 -210.22660669 245.66665701 -210.21875 243.875 C-210.22684692 243.03324219 -210.23494385 242.19148438 -210.24328613 241.32421875 C-210.18244461 237.52366477 -210.11715431 235.49242219 -207.90429688 232.3125 C-205.6875 230.875 -205.6875 230.875 -201.6875 230.875 C-201.6875 225.595 -201.6875 220.315 -201.6875 214.875 C-203.1621875 214.90980469 -204.636875 214.94460938 -206.15625 214.98046875 C-239.182663 215.52886755 -268.72460816 205.36692875 -292.94726562 182.58764648 C-314.76122426 161.46446321 -329.22979736 133.33915225 -330.14868164 102.62060547 C-330.1614917 101.73518066 -330.17430176 100.84975586 -330.1875 99.9375 C-330.20611084 99.09074707 -330.22472168 98.24399414 -330.24389648 97.37158203 C-330.23559814 96.57993652 -330.2272998 95.78829102 -330.21875 94.97265625 C-330.21423828 94.27664307 -330.20972656 93.58062988 -330.20507812 92.86352539 C-329.4119453 89.81632403 -328.23665487 88.71429235 -325.6875 86.875 C-322.88053997 86.45713298 -320.44898059 86.27025687 -317.640625 86.265625 C-316.86942322 86.24908875 -316.09822144 86.23255249 -315.3036499 86.21551514 C-312.84818546 86.16705407 -310.39334016 86.14566963 -307.9375 86.125 C-306.26950013 86.09683854 -304.60152908 86.06691086 -302.93359375 86.03515625 C-298.8516135 85.96129628 -294.76997655 85.91171064 -290.6875 85.875 C-290.96537354 85.08270996 -291.24324707 84.29041992 -291.52954102 83.47412109 C-296.69128976 68.44624501 -296.81447712 55.39674799 -290.125 40.6875 C-286.04584034 33.11771616 -280.59503392 26.50507091 -273.4375 21.6875 C-265.6710822 20.00477614 -256.51960012 19.10386048 -249.48046875 23.44140625 C-239.78091024 31.19682667 -233.42798571 42.83504619 -230.6875 54.875 C-230.40238364 57.81889565 -230.35431774 60.73118988 -230.375 63.6875 C-230.37773926 64.47850098 -230.38047852 65.26950195 -230.38330078 66.08447266 C-230.52155801 73.83164487 -232.23014856 79.96029711 -235.6875 86.875 C-224.1375 86.545 -212.5875 86.215 -200.6875 85.875 C-201.0175 83.895 -201.3475 81.915 -201.6875 79.875 C-203.09835421 60.44582738 -199.56439258 41.75692004 -186.5390625 26.68188477 C-179.56283322 19.00104669 -172.44270284 14.42870515 -161.875 13.5625 C-152.70087057 13.916031 -146.38050832 17.01514279 -139.828125 23.43359375 C-133.9149632 30.17761953 -133.01839038 36.5757388 -133.3046875 45.44140625 C-134.0839134 52.43058547 -136.51884597 57.59709603 -140.9375 63 C-143.37670678 66.11919025 -144.65043795 68.58369347 -144.36328125 72.71875 C-143.15040854 76.58872537 -140.68978193 79.60620213 -138.21875 82.7734375 C-136.6875 84.875 -136.6875 84.875 -136.6875 86.875 C-112.2675 86.545 -87.8475 86.215 -62.6875 85.875 C-68.29403773 80.29768942 -68.29403773 80.29768942 -74.6875 75.875 C-75.780625 75.9575 -76.87375 76.04 -78 76.125 C-81.6875 75.875 -81.6875 75.875 -84.2265625 73.71875 C-99.61220895 55.93978077 -98.68199687 26.10550405 -97.55126953 4.24072266 C-96.56925697 -9.30437416 -96.56925697 -9.30437416 -91.6875 -14.125 C-89.64453125 -15.015625 -89.64453125 -15.015625 -87.5 -15.375 C-86.80519531 -15.50390625 -86.11039063 -15.6328125 -85.39453125 -15.765625 C-84.50121094 -15.88421875 -83.60789062 -16.0028125 -82.6875 -16.125 C-82.06391602 -16.21040039 -81.44033203 -16.29580078 -80.79785156 -16.38378906 C-53.43405792 -19.82120393 -22.52305405 -17.3471433 0 0 Z " fill="#323232" transform="translate(345.6875,217.125)"/>
<path d="M0 0 C5.28 0 10.56 0 16 0 C16.99 1.98 17.98 3.96 19 6 C21.80041711 7.40020855 24.15302039 7.16363335 27.28564453 7.20532227 C28.2516861 7.22017166 28.2516861 7.22017166 29.23724365 7.23532104 C31.36906235 7.26694499 33.50090335 7.29169687 35.6328125 7.31640625 C37.10969629 7.33697502 38.58657418 7.35797147 40.06344604 7.37937927 C43.95305611 7.43460799 47.84271937 7.4840137 51.73242188 7.53222656 C55.70056907 7.58243577 59.66863889 7.63812486 63.63671875 7.69335938 C71.42441367 7.80095072 79.21217286 7.90239348 87 8 C87.01711897 9.42044881 87.02924105 10.84095831 87.03930664 12.26147461 C87.04660294 13.05251083 87.05389923 13.84354706 87.06141663 14.65855408 C86.74905601 26.56698244 81.19272798 38.49358666 76 49 C75.47664063 50.06089844 74.95328125 51.12179687 74.4140625 52.21484375 C70.176397 60.08036435 64.59664912 66.25400638 58.38232422 72.578125 C57.20777022 73.7862851 56.07026825 75.03029097 54.94140625 76.28125 C39.60088477 92.90839587 13.64002855 103.07597464 -8.55341339 104.12013316 C-16.12905666 104.32610604 -23.7072996 104.3049623 -31.28515625 104.30639648 C-33.84410339 104.31402721 -36.40304825 104.32245626 -38.96199036 104.33161926 C-45.88597013 104.35348257 -52.80990005 104.3623753 -59.73390961 104.36744571 C-64.06913197 104.37071837 -68.40434559 104.37725016 -72.73956299 104.3844471 C-84.77719839 104.40399541 -96.81482574 104.42041001 -108.85247803 104.42332363 C-110.0048416 104.42360499 -110.0048416 104.42360499 -111.18048525 104.42389202 C-112.73742962 104.42425824 -114.29437399 104.42462194 -115.85131836 104.42498314 C-117.01038696 104.42525735 -117.01038696 104.42525735 -118.19287109 104.42553711 C-119.35337856 104.42580793 -119.35337856 104.42580793 -120.53733063 104.42608423 C-133.0577562 104.42962168 -145.57800935 104.45662513 -158.0983752 104.494035 C-170.99798886 104.53226502 -183.89751728 104.55148217 -196.79718876 104.55178314 C-204.02170878 104.55236441 -211.24602302 104.56064086 -218.4704895 104.58978081 C-225.27344288 104.6170975 -232.07598524 104.61807571 -238.87897301 104.60212517 C-241.35996071 104.60032357 -243.84097258 104.60688304 -246.32190895 104.62294388 C-279.33908958 104.8234639 -306.21273844 96.19692077 -330 73 C-330.72832031 72.34515625 -331.45664062 71.6903125 -332.20703125 71.015625 C-346.3224825 57.9859777 -356.64677235 35.84889204 -359 17 C-359.02672496 15.43371836 -359.0339731 13.86702047 -359.02490234 12.30053711 C-359.02130707 11.49402206 -359.01771179 10.68750702 -359.01400757 9.85655212 C-359.00938507 9.24388992 -359.00476257 8.63122772 -359 8 C-357.88187239 7.99796521 -357.88187239 7.99796521 -356.74115634 7.99588931 C-312.59205043 7.9152936 -268.44297624 7.82436142 -224.29391991 7.71994839 C-218.99656527 7.70742905 -213.69921043 7.69499635 -208.40185547 7.68261719 C-207.3472177 7.68015119 -206.29257992 7.6776852 -205.20598343 7.67514448 C-188.11443166 7.63538712 -171.02287326 7.60265297 -153.93130216 7.57250018 C-136.4025105 7.54142026 -118.87374708 7.50282576 -101.34498715 7.45720994 C-90.52298507 7.42928562 -79.70100373 7.40726972 -68.87897524 7.39273749 C-61.46464982 7.38222058 -54.05036448 7.36442504 -46.63606921 7.34083296 C-42.35414885 7.32742523 -38.07228482 7.31729646 -33.79034233 7.31578636 C-29.87334538 7.31433436 -25.95648426 7.30378179 -22.039529 7.28586559 C-20.61955564 7.28099951 -19.19956593 7.27952755 -17.77958593 7.28172119 C-15.85475505 7.28420744 -13.9299206 7.27332383 -12.00512314 7.26171303 C-10.39890614 7.25829554 -10.39890614 7.25829554 -8.76024032 7.25480902 C-5.89103223 6.98994074 -4.31186661 6.71260454 -2 5 C-1.34 3.35 -0.68 1.7 0 0 Z " fill="#ACE7F3" transform="translate(392,312)"/>
<path d="M0 0 C8.76204058 11.13225998 4.99531305 37.82256214 3.4765625 51.04296875 C0.85333114 71.16789935 -6.64253771 90.08578998 -22.92578125 102.98828125 C-38.32364791 113.96459426 -56.92372037 119.38739642 -75.7734375 116.7421875 C-90.41177817 113.92283353 -101.40737931 107.51997057 -110.11328125 95.17578125 C-118.53654363 80.93787913 -118.68864712 64.65711594 -115.21484375 48.87890625 C-110.20730185 30.21079006 -99.86527583 16.00430531 -83.23828125 6.23828125 C-64.94269087 -3.67916017 -18.05608345 -14.21168174 0 0 Z " fill="#333232" transform="translate(204.23828125,19.76171875)"/>
<path d="M0 0 C22.47812705 12.36296988 42.32872317 37.4529023 50.5 61.5625 C55.08780697 79.60650866 52.32362193 97.8689167 43.69921875 114.18359375 C40.89013749 118.83956522 37.59739694 122.93430287 34 127 C33.48050781 127.62519531 32.96101563 128.25039062 32.42578125 128.89453125 C28.83071566 132.90615355 24.63513485 135.6243895 20 138.3125 C19.41847168 138.65039551 18.83694336 138.98829102 18.23779297 139.33642578 C7.53758108 145.27430678 -5.4820513 145.65214568 -17.36328125 143.34765625 C-32.92147918 138.10154899 -44.01174109 126.96899725 -52 113 C-52.38929688 112.34515625 -52.77859375 111.6903125 -53.1796875 111.015625 C-61.39322019 96.11665872 -62.64232184 77.49944104 -58.3125 61.1875 C-57.59079763 59.10729906 -56.82383258 57.04190846 -56 55 C-55.66097656 54.08347656 -55.32195312 53.16695312 -54.97265625 52.22265625 C-53.86347898 49.72404695 -52.93664773 47.93194713 -51 46 C-48.703125 45.36328125 -48.703125 45.36328125 -46.125 45.0625 C-42.74095118 44.66676416 -41.33218457 44.29798057 -38.76171875 41.9921875 C-36.20511772 38.64145189 -34.07170166 35.82409017 -33.90234375 31.515625 C-34.13020149 29.98974619 -34.39597604 28.46894553 -34.703125 26.95703125 C-35 25 -35 25 -34 22.375 C-28.09096911 15.35802582 -21.19434571 9.66363386 -14 4 C-13.41992188 3.51789062 -12.83984375 3.03578125 -12.2421875 2.5390625 C-8.42266384 -0.40384917 -4.60601029 -1.2794473 0 0 Z " fill="#333232" transform="translate(428,16)"/>
<path d="M0 0 C71.28 0 142.56 0 216 0 C216 15.84 216 31.68 216 48 C147.36 48 78.72 48 8 48 C7.67 39.09 7.34 30.18 7 21 C5.06008639 17.47639003 5.06008639 17.47639003 0 16 C0 10.72 0 5.44 0 0 Z " fill="#00B3D7" transform="translate(144,432)"/>
<path d="M0 0 C3.26608519 3.06195487 6.05466437 6.28225281 8.8125 9.8125 C26.33734275 31.81591368 54.03339689 47.69406269 82.09587985 51.26683688 C88.6317001 51.97644383 95.08493366 52.14590405 101.65556335 52.14044189 C102.78875167 52.14341302 103.92193999 52.14638414 105.08946735 52.1494453 C108.86523519 52.15807783 112.64097113 52.1596359 116.41674805 52.16113281 C119.1327686 52.16523122 121.84878586 52.17076996 124.56480408 52.17617798 C131.92861895 52.18970643 139.29242835 52.19577709 146.65625358 52.20018864 C151.26126771 52.20295972 155.86627977 52.20719855 160.4712925 52.21169281 C173.24226976 52.22387706 186.01324538 52.23417884 198.78422832 52.2375679 C200.00803526 52.23789725 200.00803526 52.23789725 201.25656556 52.23823325 C202.48314954 52.23856067 202.48314954 52.23856067 203.73451298 52.2388947 C205.39128665 52.23933815 207.04806032 52.23978472 208.70483398 52.24023438 C209.52663522 52.2404558 210.34843645 52.24067723 211.19514076 52.24090537 C224.50544134 52.24485182 237.81568714 52.26230493 251.12596657 52.2855939 C264.81871801 52.30935714 278.51144201 52.32177197 292.20421439 52.32293582 C299.88125176 52.32384965 307.55821765 52.32952834 315.23523521 52.34775543 C321.77278748 52.36322357 328.31024616 52.36823747 334.84781327 52.36001733 C338.17736702 52.35613471 341.50658087 52.35858466 344.83613586 52.37107468 C364.11553274 52.44815178 364.11553274 52.44815178 383 49 C383.87646525 48.76857426 384.75293051 48.53714851 385.65595531 48.29870987 C387.75760948 47.7238154 389.81209478 47.07560461 391.875 46.375 C392.98572876 45.99976196 392.98572876 45.99976196 394.11889648 45.61694336 C406.02667117 41.4040435 417.5124146 35.40637909 427 27 C427.66 27.33 428.32 27.66 429 28 C411.1497786 52.75998453 388.48382383 70.36658583 357.85620117 76.03236389 C346.8890408 77.67962045 335.7781593 77.30430265 324.71484375 77.30639648 C322.15589661 77.31402721 319.59695175 77.32245626 317.03800964 77.33161926 C310.11402987 77.35348257 303.19009995 77.3623753 296.26609039 77.36744571 C291.93086803 77.37071837 287.59565441 77.37725016 283.26043701 77.3844471 C271.22280161 77.40399541 259.18517426 77.42041001 247.14752197 77.42332363 C245.9951584 77.42360499 245.9951584 77.42360499 244.81951475 77.42389202 C243.26257038 77.42425824 241.70562601 77.42462194 240.14868164 77.42498314 C238.98961304 77.42525735 238.98961304 77.42525735 237.80712891 77.42553711 C236.64662144 77.42580793 236.64662144 77.42580793 235.46266937 77.42608423 C222.9422438 77.42962168 210.42199065 77.45662513 197.9016248 77.494035 C185.00201114 77.53226502 172.10248272 77.55148217 159.20281124 77.55178314 C151.97829122 77.55236441 144.75397698 77.56064086 137.5295105 77.58978081 C130.72655712 77.6170975 123.92401476 77.61807571 117.12102699 77.60212517 C114.64003929 77.60032357 112.15902742 77.60688304 109.67809105 77.62294388 C76.66091042 77.8234639 49.78726156 69.19692077 26 46 C25.27167969 45.34515625 24.54335938 44.6903125 23.79296875 44.015625 C12.10082799 33.22287968 2.48165031 15.71711865 0 0 Z " fill="#48C9E3" transform="translate(36,339)"/>
<path d="M0 0 C0.99917059 -0.00872064 0.99917059 -0.00872064 2.01852643 -0.01761746 C4.2547786 -0.03223735 6.48993653 -0.01832417 8.72618103 -0.00457001 C10.3438603 -0.00917817 11.96153539 -0.01553051 13.5792017 -0.02347898 C18.02778246 -0.04020721 22.47602084 -0.03191015 26.92460299 -0.01953411 C31.72086206 -0.0105002 36.51706142 -0.02444509 41.31330872 -0.0354538 C50.71045789 -0.05326136 60.10747944 -0.04938908 69.50463367 -0.03780323 C77.14035259 -0.02877798 84.77603569 -0.02754097 92.41175842 -0.0318985 C93.49757896 -0.03251143 94.58339951 -0.03312436 95.7021237 -0.03375587 C97.90779139 -0.03503474 100.11345906 -0.03633159 102.31912673 -0.03764623 C123.01266903 -0.04905859 143.70614051 -0.03592805 164.3996712 -0.01444477 C182.16438638 0.0034268 199.92899703 0.00032287 217.69371033 -0.01811981 C238.31206071 -0.03951495 258.93034898 -0.04795989 279.54870892 -0.03567076 C281.74636522 -0.03439653 283.94402153 -0.03313905 286.14167786 -0.0318985 C287.22303058 -0.0312814 288.30438331 -0.03066429 289.4185043 -0.03002849 C297.0470488 -0.02657152 304.67555399 -0.03241141 312.30409241 -0.04181671 C321.59789031 -0.053023 330.89155303 -0.05002552 340.1853354 -0.02869374 C344.92923948 -0.01816486 349.672918 -0.01409272 354.41682053 -0.02729034 C358.75689949 -0.03918212 363.09654315 -0.0327051 367.43658245 -0.01138014 C369.00918549 -0.00690038 370.58182508 -0.00921104 372.15440476 -0.01888329 C374.28794222 -0.0310023 376.41997793 -0.01862058 378.55343628 0 C380.33272727 0.00097411 380.33272727 0.00097411 382.14796352 0.00196791 C385.94599442 0.61061902 387.62264646 1.75343549 390.27671814 4.50336456 C390.81723509 8.28698321 390.82434382 10.51242286 388.96421814 13.87836456 C385.68161722 17.03938767 382.13608319 16.63187281 377.81514931 16.64037895 C377.15303165 16.64303078 376.49091398 16.64568261 375.80873215 16.64841479 C373.57438333 16.65611734 371.34008938 16.65666732 369.10572815 16.65726471 C367.49390442 16.66127868 365.88208171 16.66571679 364.27026021 16.67054427 C359.82867669 16.68252248 355.38710404 16.68816108 350.94550753 16.69272542 C346.16013658 16.6986766 341.37477867 16.71028746 336.5894165 16.72101593 C325.02807235 16.74554812 313.46672388 16.76016677 301.90536171 16.773076 C298.64166124 16.77678685 295.3779612 16.78076015 292.11426115 16.78482866 C271.8592372 16.81006028 251.6042126 16.8321194 231.34917641 16.84455681 C226.65672936 16.84748663 221.96428233 16.85044828 217.27183533 16.85346222 C216.10551301 16.85420827 214.93919069 16.85495432 213.73752527 16.85572298 C194.82969129 16.86838569 175.92195114 16.90162092 157.01416107 16.94326405 C137.61511842 16.98564009 118.2161239 17.00924669 98.81703508 17.01447737 C87.91971881 17.01789603 77.02254928 17.02970502 66.12527847 17.06258011 C56.84790534 17.09052208 47.57070903 17.10160567 38.29329707 17.09038465 C33.55744232 17.08518329 28.82195822 17.08818026 24.08615685 17.11285019 C19.75334847 17.13523315 15.42117934 17.1346889 11.08836059 17.11564632 C9.51837644 17.11283086 7.94834995 17.11853006 6.37843426 17.13345926 C4.24816149 17.15248358 2.12018764 17.14083676 -0.01003075 17.12139702 C-1.78639131 17.12343181 -1.78639131 17.12343181 -3.59863794 17.12550771 C-7.68076694 16.31272115 -9.17485383 14.73059077 -11.72328186 11.50336456 C-12.34828186 7.94086456 -12.34828186 7.94086456 -11.72328186 4.50336456 C-7.96350562 0.62909094 -5.31228869 0.00290834 0 0 Z " fill="#323232" transform="translate(66.72328186035156,335.4966354370117)"/>
<path d="M0 0 C13.65769961 8.09512659 21.53375168 23.07119198 25.8125 37.9375 C29.68268838 56.06040134 26.90424399 74.94250988 17.25 90.8125 C11.00328945 99.97344269 4.04766308 108.82065217 -7.4375 111 C-17.50866073 111.82472497 -24.8501951 110.45612711 -32.75 104 C-39.14970558 97.84911656 -41.51640761 91.21851489 -41.9375 82.4375 C-41.61235328 74.82906684 -38.96560984 68.72121594 -34.25 62.8125 C-31.43500847 59.26875432 -30.3497794 56.64919162 -30.4375 52 C-31.46453822 49.47753497 -31.46453822 49.47753497 -33.4375 47 C-39.65636462 38.26712627 -42.64963979 30.8942934 -41.4375 20 C-39.56826287 12.96762679 -36.48884696 6.62944565 -30.22265625 2.5625 C-21.04168269 -2.67526773 -9.94763561 -4.61743834 0 0 Z " fill="#333232" transform="translate(285.4375,34)"/>
<path d="M0 0 C6.93785148 4.13467917 12.13729459 10.18633239 14.4375 18 C14.87159855 21.19869522 14.91425438 24.33776789 14.875 27.5625 C14.86670166 28.44365479 14.85840332 29.32480957 14.84985352 30.23266602 C14.40167764 47.74980359 6.62705056 63.50618609 -5.5625 76 C-13.09625603 82.68845381 -21.19978851 87.34854252 -30.5625 91 C-31.408125 91.3403125 -32.25375 91.680625 -33.125 92.03125 C-43.09844566 95.39728791 -57.61841908 96.42936803 -67.375 92 C-74.39335531 87.61042795 -78.79269036 81.75060768 -81.5625 74 C-81.86831816 71.24763654 -82.04099073 68.80068104 -82 66.0625 C-81.99315186 65.35883301 -81.98630371 64.65516602 -81.97924805 63.93017578 C-81.80666009 58.35435674 -80.85366732 54.46111716 -77.5625 50 C-76.9025 48.96875 -76.2425 47.9375 -75.5625 46.875 C-69.43621861 40.0180612 -60.0979433 37.40070785 -51.25390625 36.71484375 C-47.45642891 35.70622495 -45.95535642 34.08486716 -43.5625 31 C-42.54013964 27.55590912 -42.54013964 27.55590912 -42.125 23.8125 C-40.66139491 14.91694912 -37.69165819 8.15834239 -30.5 2.5 C-21.9723254 -3.49901853 -9.52931416 -4.35416355 0 0 Z " fill="#323232" transform="translate(465.5625,186)"/>
<path d="M0 0 C0.70366699 0.00684814 1.40733398 0.01369629 2.13232422 0.02075195 C7.70814326 0.19333991 11.60138284 1.14633268 16.0625 4.4375 C17.609375 5.4275 17.609375 5.4275 19.1875 6.4375 C26.0444388 12.56378139 28.66179215 21.9020567 29.34765625 30.74609375 C30.35664461 34.5449625 31.9765749 36.04288876 35.0625 38.4375 C38.53887631 39.49601944 38.53887631 39.49601944 42.3125 39.9375 C52.52512666 41.66026105 58.43682866 44.81012099 64.65234375 53.15625 C69.06832867 60.3001148 69.04918851 68.28444547 68.0625 76.4375 C66.01463416 83.80981702 61.43181172 89.28312194 55.0625 93.4375 C49.48359034 96.36109631 44.88461764 96.9847424 38.625 96.9375 C37.31317749 96.93000732 37.31317749 96.93000732 35.97485352 96.92236328 C20.34091905 96.51023338 5.38300093 90.26580524 -5.9375 79.4375 C-7.3104863 76.6915274 -7.06162634 74.4785953 -6.9375 71.4375 C-6.4425 69.9525 -6.4425 69.9525 -5.9375 68.4375 C-7.07104664 66.41098252 -7.07104664 66.41098252 -8.75 64.4375 C-10.58695001 62.13367671 -12.29934039 59.89473941 -13.9375 57.4375 C-15.93761379 56.79627456 -17.89369184 56.49696039 -19.96484375 56.16015625 C-22.65614924 55.17423246 -23.45862255 53.86097837 -24.9375 51.4375 C-29.42963841 41.52891487 -29.79896153 27.64204555 -27.09375 17.171875 C-23.89637812 10.12901532 -18.48877391 5.24928765 -11.67578125 1.7734375 C-7.67921985 0.34519926 -4.19216473 -0.06275696 0 0 Z " fill="#333232" transform="translate(59.9375,119.5625)"/>
<path d="M0 0 C9.7971533 6.98025027 16.35359698 16.93649906 19.625 28.5 C20.29992832 32.54956993 20.39623023 36.15555368 20.25 40.25 C16.90863679 37.09298786 14.1738541 33.61247179 11.4375 29.9375 C3.2601079 18.59861318 3.2601079 18.59861318 -8.8125 12.75 C-11.90697149 13.01408669 -11.90697149 13.01408669 -14.1875 15.375 C-15.97072556 18.11077502 -15.97072556 18.11077502 -15.75 21.0234375 C-14.35812915 25.51439579 -11.73110723 27.64601306 -8.3125 30.75 C-3.40159094 35.42708618 1.01437882 40.14720863 4.9375 45.6875 C5.33445068 46.24179687 5.73140137 46.79609375 6.14038086 47.3671875 C9.69224441 52.5267855 12.73427775 57.75731542 12.4375 64.1875 C12.39689453 65.34572266 12.39689453 65.34572266 12.35546875 66.52734375 C12.30326172 67.38005859 12.30326172 67.38005859 12.25 68.25 C2.28903015 69.43180998 -4.72687556 64.8680072 -12.640625 59.16796875 C-16.54108999 56.07545722 -20.21306294 52.84781078 -23.66796875 49.265625 C-24.3947583 48.51394043 -24.3947583 48.51394043 -25.13623047 47.74707031 C-26.48945722 46.32666866 -27.8177864 44.88266837 -29.14453125 43.4375 C-32.13620703 40.92574822 -33.87627192 40.37188201 -37.75 40.25 C-40.7401643 41.65878096 -40.7401643 41.65878096 -42.75 44.25 C-43.53340716 47.38362863 -43.30847725 49.20510708 -41.78125 52.0625 C-35.55114735 61.04543871 -26.58511369 68.00128566 -17.55078125 73.97265625 C-16.95652344 74.39417969 -16.36226563 74.81570313 -15.75 75.25 C-15.75 75.58 -15.75 75.91 -15.75 76.25 C-20.01825164 76.3994808 -24.28507671 76.50773491 -28.55517578 76.57958984 C-30.0043393 76.60957254 -31.45332428 76.65037521 -32.90185547 76.70263672 C-47.43905806 77.21359284 -47.43905806 77.21359284 -53.26953125 71.83007812 C-54.00236328 71.04793945 -54.00236328 71.04793945 -54.75 70.25 C-55.26949219 69.75435547 -55.78898437 69.25871094 -56.32421875 68.74804688 C-57.49978815 67.61595744 -58.63144998 66.4384594 -59.75 65.25 C-59.42 64.569375 -59.09 63.88875 -58.75 63.1875 C-57.20042446 58.63562185 -57.11314878 54.79575539 -58.95703125 50.3203125 C-59.48683594 49.34835937 -60.01664062 48.37640625 -60.5625 47.375 C-67.97428328 31.85055559 -70.74815148 6.82953956 -65.75 -9.75 C-45.69024204 -15.80554702 -17.58514929 -10.81471702 0 0 Z " fill="#D89266" transform="translate(331.75,227.75)"/>
<path d="M0 0 C5.57030846 2.44177905 9.61764799 6.88878632 14 11 C14.84433594 11.77859375 15.68867188 12.5571875 16.55859375 13.359375 C28.17319933 24.44851481 40.26075127 40.62924036 41.1796875 57.25 C41.30433695 63.78717133 41.25554644 69.8324902 39 76 C38.67 76.93457031 38.34 77.86914062 38 78.83203125 C35.32159116 85.83642278 31.93683996 91.36602701 27 97 C25.5650316 94.1300632 26.37081711 92.27323827 26.9375 89.125 C27.88338748 82.87307249 28.2576527 76.75937327 28.3125 70.4375 C28.33848267 69.15286865 28.33848267 69.15286865 28.36499023 67.84228516 C28.36169883 63.08291346 28.12944498 59.84518179 25 56 C22.20129973 54.60064987 20.09501208 54.74734595 17 55 C14.75432453 56.62419555 14.07850642 57.51607626 13.63110352 60.27392578 C13.63001587 61.59626221 13.63001587 61.59626221 13.62890625 62.9453125 C13.61432373 63.93200928 13.59974121 64.91870605 13.5847168 65.93530273 C13.57738525 66.98790283 13.57005371 68.04050293 13.5625 69.125 C13.25559231 81.82033619 12.62761999 100.37238001 3 110 C0.625 110.0625 0.625 110.0625 -2 109 C-5.25748448 104.09180565 -6.91607992 99.52584338 -8.1875 93.8125 C-8.4340332 92.76545898 -8.4340332 92.76545898 -8.68554688 91.69726562 C-9.13143629 89.79997908 -9.56621715 87.90009107 -10 86 C-10.26780273 85.06849121 -10.26780273 85.06849121 -10.54101562 84.11816406 C-11.10127998 81.53260366 -11.14509595 79.11018134 -11.17578125 76.46484375 C-11.19962891 75.40845703 -11.22347656 74.35207031 -11.24804688 73.26367188 C-11.2910875 71.04251488 -11.32229873 68.82109778 -11.34179688 66.59960938 C-11.36951172 65.54451172 -11.39722656 64.48941406 -11.42578125 63.40234375 C-11.44036377 62.43804443 -11.45494629 61.47374512 -11.4699707 60.48022461 C-11.79302751 57.8801201 -11.79302751 57.8801201 -13.81323242 56.16235352 C-17.19791721 54.36325959 -19.39786139 54.95210513 -23 56 C-26.38712848 60.09733284 -26.43145093 64.09133366 -26.3125 69.1875 C-26.30412109 69.96399902 -26.29574219 70.74049805 -26.28710938 71.54052734 C-26.11554655 80.08607145 -25.12072628 88.53451402 -24 97 C-33.17626546 88.24366534 -38.30361483 77.42974015 -39.23828125 64.7734375 C-39.43663379 55.6909792 -38.09951698 47.9706485 -33.88671875 39.85546875 C-32.58158909 37.12447056 -32.68314292 34.97845655 -33 32 C-33.515625 31.484375 -34.03125 30.96875 -34.5625 30.4375 C-35.036875 29.963125 -35.51125 29.48875 -36 29 C-35.65411057 24.77726657 -34.08688298 22.41493018 -31.4375 19.1875 C-30.79683594 18.39730469 -30.15617187 17.60710938 -29.49609375 16.79296875 C-29.00238281 16.20128906 -28.50867188 15.60960937 -28 15 C-27.01 15.33 -26.02 15.66 -25 16 C-21.55241375 16.54079784 -19.10674905 16.732475 -16.1171875 14.75390625 C-14.00517074 12.90268508 -12.00541619 10.96623399 -10 9 C-8.17251182 7.34767878 -6.33910993 5.70187584 -4.5 4.0625 C-2.99950054 2.70888678 -1.49932062 1.35491884 0 0 Z " fill="#EBB68D" transform="translate(423,34)"/>
<path d="M0 0 C4.67354255 20.4773423 1.58731015 45.6152406 -8.66796875 63.98828125 C-15.2196681 73.86830385 -23.27729215 79.22284878 -34 84 C-34.8146875 84.37253906 -35.629375 84.74507813 -36.46875 85.12890625 C-39.45679676 86.15720012 -42.16313689 86.41734969 -45.3125 86.625 C-46.91544922 86.73714844 -46.91544922 86.73714844 -48.55078125 86.8515625 C-49.35902344 86.90054688 -50.16726562 86.94953125 -51 87 C-48.43434187 84.34805292 -45.82904442 82.01985791 -42.875 79.8125 C-30.9847897 71.49941543 -30.9847897 71.49941543 -23.50390625 59.8671875 C-23.5885834 56.98816427 -23.69692376 54.57049646 -25.0625 52 C-28.27577515 50.34153541 -30.42099006 50.52984493 -34 51 C-36.81080706 53.00896149 -39.01045918 55.50013971 -41.3125 58.0625 C-42.62995991 59.45180957 -43.95285877 60.83598247 -45.28125 62.21484375 C-45.91804688 62.87597168 -46.55484375 63.53709961 -47.2109375 64.21826172 C-50.76265686 67.75544074 -54.68696534 70.48165091 -59 73 C-59.83015625 73.48984375 -60.6603125 73.9796875 -61.515625 74.484375 C-67.08474986 77.52518551 -71.66782624 78.6936045 -78 79 C-79.80264455 75.39471089 -78.9642274 71.75340495 -78 68 C-72.41755013 55.94514449 -63.65274719 46.38175243 -54.22265625 37.25 C-51.59401461 34.58902006 -51.06592393 33.7746062 -50.75 30.0625 C-50.78782064 27.09887329 -50.78782064 27.09887329 -52 25.125 C-55.19204763 23.32947321 -58.47070845 23.44580001 -62 24 C-65.17368049 25.8809433 -65.17368049 25.8809433 -67.875 28.6875 C-68.37894287 29.17283203 -68.88288574 29.65816406 -69.40209961 30.15820312 C-74.08124036 34.79546744 -78.06823913 39.934871 -81.94140625 45.25 C-83.53413348 47.37766597 -85.05346671 49.20894062 -87 51 C-87.97975319 38.26320858 -81.92192197 26.44477651 -73.9375 16.875 C-66.48436502 8.91425949 -57.47239534 4.53441531 -47 2 C-46.14277344 1.72285156 -45.28554687 1.44570313 -44.40234375 1.16015625 C-30.51109347 -2.89691146 -14.20572236 -2.14556586 0 0 Z " fill="#EBB68D" transform="translate(191,33)"/>
<path d="M0 0 C10.84683458 6.94783728 18.01475885 16.41092752 21.375 29 C23.35663916 38.50202132 22.6467533 48.06893356 17.375 56.5 C13.46542265 61.46169603 7.34883779 64.71705407 1.4375 66.6875 C-13.77930843 67.75197857 -24.6173614 64.64361088 -36.65234375 55.015625 C-46.78821496 45.91085009 -51.15326387 32.90465151 -52.5625 19.6875 C-52.79588081 12.188873 -51.08730748 5.63277944 -46.0234375 -0.03515625 C-33.10520914 -12.03908078 -14.15046371 -7.88306887 0 0 Z " fill="#323232" transform="translate(359.5625,137.3125)"/>
<path d="M0 0 C5.85784295 4.77876662 8.97096186 10.53676552 10 18 C10.46735524 32.81312908 4.88675292 46.81023751 -5 57.6875 C-14.11131459 66.42629065 -25.34970691 70.34831394 -37.78710938 70.38061523 C-46.54534188 70.18345593 -52.28786703 67.06911494 -58.4375 60.875 C-63.9565919 54.104616 -65.31879972 47.17009235 -65 38.5625 C-63.56964968 25.7349966 -57.12293018 14.47565115 -47.05859375 6.40625 C-33.70244594 -2.71749423 -14.89763656 -8.84859621 0 0 Z " fill="#323232" transform="translate(227,142)"/>
<path d="M0 0 C58.41 0 116.82 0 177 0 C177 7.92 177 15.84 177 24 C158.28436475 24.09276074 139.56879485 24.16406263 120.8529768 24.20724869 C112.16207724 24.22783743 103.47132351 24.25588711 94.78051758 24.30175781 C87.20192799 24.34173894 79.62344407 24.3674596 72.04475194 24.37635398 C68.0351813 24.38154974 64.02591283 24.39368376 60.01643944 24.42292023 C56.23497945 24.4502681 52.4539433 24.45840639 48.6723938 24.45243073 C46.63837753 24.45403906 44.60440639 24.4754597 42.57051086 24.49768066 C26.84999592 24.42769721 14.81511753 18.26835881 3.8125 7.24609375 C2 5 2 5 0 0 Z " fill="#47C9E3" transform="translate(183,440)"/>
<path d="M0 0 C20.53579475 -0.64174359 41.26983847 1.30655416 57.12109375 15.9609375 C65.2663114 24.49108982 71.04145915 35.55365909 71.125 47.5 C71.08375 48.655 71.0425 49.81 71 51 C67.65863679 47.84298786 64.9238541 44.36247179 62.1875 40.6875 C54.0101079 29.34861318 54.0101079 29.34861318 41.9375 23.5 C38.84302851 23.76408669 38.84302851 23.76408669 36.5625 26.125 C34.78174894 28.85906276 34.78174894 28.85906276 34.9921875 31.76171875 C36.40616731 36.305088 39.11303637 38.53088193 42.5625 41.6875 C48.42064557 47.28520063 53.95219998 52.89749376 58 60 C58 60.99 58 61.98 58 63 C44.55118867 63.76125347 31.6608649 58.39466296 21.625 49.5625 C20.06533058 48.06013472 18.5217109 46.54080046 17 45 C16.42507813 44.44699219 15.85015625 43.89398438 15.2578125 43.32421875 C10.27584488 38.12283805 7.71981741 31.57759997 5 25 C4.67902344 24.24847656 4.35804688 23.49695313 4.02734375 22.72265625 C1.26372458 15.48725128 0.7976602 7.64815372 0 0 Z " fill="#EBB68D" transform="translate(281,217)"/>
<path d="M0 0 C4.59746519 1.92452031 6.75812221 4.59355055 9 9 C9.59463493 11.99847825 10.01800554 15.00135194 10.44921875 18.02734375 C11.67451142 24.64044816 14.74902723 29.77639146 20 34 C25.26163718 37.33333921 30.06907258 39.17843573 36.25 40 C41.72019511 40.73217541 44.26185007 41.95875683 48 46 C49.53214888 49.06429776 49.22938548 51.6165642 49 55 C47.48007896 58.18459646 45.71704041 60.73579966 43 63 C33.90425606 66.03191465 24.50681556 63.77715749 16 60 C10.82273727 57.26196588 5.8712962 54.2475308 1 51 C-1.34360915 51.25110098 -3.67968195 51.58565749 -6 52 C-6.99 52 -7.98 52 -9 52 C-12.58639157 48.32235164 -15.46462766 43.91319147 -17 39 C-16.34 38.505 -15.68 38.01 -15 37.5 C-12.6994327 34.62429088 -12.55162215 32.89617931 -12.7265625 29.26953125 C-13.02081962 26.82719716 -13.48384447 24.46748555 -14 22.0625 C-16.44163275 10.35702533 -16.44163275 10.35702533 -13.7265625 5.91796875 C-9.4326179 0.77570826 -6.87595459 -0.46616641 0 0 Z " fill="#EAB68D" transform="translate(63,136)"/>
<path d="M0 0 C3.32111098 2.08046607 6.23180362 4.46360725 8 8 C9.11576947 21.72655924 4.74061451 35.42746687 -4.1328125 45.9765625 C-12.98717689 55.57187788 -24.82166055 62.70376989 -38 64 C-39.20076172 64.13341797 -39.20076172 64.13341797 -40.42578125 64.26953125 C-45.32552387 64.58924131 -48.23031489 64.3591439 -52.0625 61.125 C-55.11370315 58.15276917 -55.93759024 56.62409765 -56.375 52.25 C-56.33925671 48.97353159 -55.80558697 47.18502549 -53.75 44.625 C-49.99300538 41.03877786 -47.52590338 39.84689278 -42.375 39.6875 C-35.24970041 39.08758556 -29.64594979 36.12826396 -24.125 31.6875 C-19.89642659 26.33959833 -17.96504082 21.64706906 -17 14.875 C-16.10700598 8.66320825 -14.5199893 5.69998854 -10.25 1.125 C-6.81596711 -0.59201644 -3.68398748 -0.86964017 0 0 Z " fill="#F6D8AD" transform="translate(456,200)"/>
<path d="M0 0 C8.57731577 4.69710149 13.76965286 16.13053082 16.68359375 25.10546875 C20.62138381 40.01475664 17.41360113 54.94265491 9.91015625 68.1015625 C7.03446393 72.46508744 3.74742629 76.62628686 -1 79 C-4.3858534 79.41948626 -7.62068431 79.49414522 -11 79 C-14.0625 76.5625 -14.0625 76.5625 -16 74 C-16.33 73.67 -16.66 73.34 -17 73 C-17.81185209 68.43333201 -17.83829989 64.49905102 -15.54296875 60.39453125 C-14.29723433 58.70295504 -13.03518001 57.02328665 -11.7578125 55.35546875 C-6.51990057 48.33666676 -5.89089569 40.57501944 -7 32 C-8.89511001 26.38235247 -11.56189779 21.96259126 -16 18 C-17.35728648 13.92814056 -17.6593499 10.25316911 -17 6 C-13.05058812 -1.36511945 -7.42666352 -1.63281255 0 0 Z " fill="#F7D9AD" transform="translate(278,49)"/>
<path d="M0 0 C4.05340478 2.10176544 6.31245981 3.77333683 8 8 C8.78368021 13.99634101 6.61893809 17.93256717 3.0625 22.625 C2.34191406 23.55570312 1.62132812 24.48640625 0.87890625 25.4453125 C-3.47994586 31.37190144 -4.04982685 38.85583932 -3 46 C-1.68 49.3 -0.36 52.6 1 56 C-7.58 56 -16.16 56 -25 56 C-29.13252779 45.66868054 -28.77019711 31.26085255 -25 20.75 C-20.22349757 10.53396789 -13.05186859 -2.59997382 0 0 Z " fill="#F6D8AC" transform="translate(188,248)"/>
<path d="M0 0 C5.98057827 1.79417348 8.88059612 6.04133075 12.04296875 11.2578125 C16.04359265 18.8546651 17.28150189 27.51478321 14.99609375 35.88671875 C13.02008583 41.07083365 10.85863135 46.28211939 5.8984375 49.22265625 C2.18831229 50.78090884 -1.30784982 50.75684289 -5.25 50.125 C-11.51059047 46.63351685 -14.28890036 40.89288003 -16.25 34.125 C-17.33575047 25.63726372 -16.71532428 18.47161915 -12.25 11.125 C-11.75628906 10.30773437 -11.26257813 9.49046875 -10.75390625 8.6484375 C-5.38083578 0.20695522 -5.38083578 0.20695522 0 0 Z " fill="#BE7F5C" transform="translate(83.25,253.875)"/>
<path d="M0 0 C1.04027344 -0.03738281 2.08054688 -0.07476562 3.15234375 -0.11328125 C6.76856698 0.41580376 7.88923238 1.42508533 10.0625 4.3125 C11.31568946 12.92817752 8.27615084 22.63718778 3.375 29.75 C-1.42517855 35.5126509 -8.66005189 40.52317733 -16.18359375 41.6484375 C-21.60752131 41.7451207 -24.66137834 40.96284776 -28.9375 37.3125 C-31.95169812 32.79120282 -31.60402515 28.60998637 -30.9375 23.3125 C-27.95440436 14.11018264 -22.20873889 7.79114607 -13.6875 3.4375 C-8.99943051 1.23905748 -5.20343468 0.12220675 0 0 Z " fill="#D89166" transform="translate(209.9375,154.6875)"/>
<path d="M0 0 C9.26276811 2.85514301 16.52834822 8.84569749 21.3125 17.28515625 C23.6396852 22.59378869 24.18232671 27.69911401 23.1875 33.41015625 C21.41234891 36.63172675 20.07213743 37.89411775 16.9375 39.72265625 C9.03856127 41.69739093 4.09261381 40.05156698 -2.97265625 36.23828125 C-11.21312106 30.93355287 -15.24394029 23.27392089 -17.39453125 13.86328125 C-18.17101062 9.30600045 -18.72651904 5.1511449 -16.5 0.91015625 C-11.29076955 -1.99732121 -5.68200292 -1.19164228 0 0 Z " fill="#D89266" transform="translate(341.8125,147.58984375)"/>
<path d="M0 0 C0.33 0 0.66 0 1 0 C0.1367561 12.66091058 -6.69736224 23.14500395 -15.6875 31.6875 C-23.47153386 38.22487218 -33.88853998 43.00543016 -44 44 C-45.20076172 44.13341797 -45.20076172 44.13341797 -46.42578125 44.26953125 C-51.32552387 44.58924131 -54.23031489 44.3591439 -58.0625 41.125 C-61.21311082 38.0559344 -61.96080878 36.61726165 -62.25 32.0625 C-62.22266341 28.29688454 -62.22266341 28.29688454 -60.5 26 C-60.005 25.67 -59.51 25.34 -59 25 C-58.45472656 25.32484375 -57.90945313 25.6496875 -57.34765625 25.984375 C-49.65145234 29.31384757 -37.73520062 27.24485746 -30.12255859 24.26513672 C-18.10509487 19.12476916 -8.55654707 12.33005282 -1.05859375 1.43359375 C-0.53458984 0.72396484 -0.53458984 0.72396484 0 0 Z " fill="#EAB68C" transform="translate(462,220)"/>
<path d="M0 0 C2.31 0.66 4.62 1.32 7 2 C6.76023437 2.75796875 6.76023437 2.75796875 6.515625 3.53125 C4.38179423 13.74777306 6.09212235 24.1614295 9 34 C9.35095968 35.66304425 9.68986085 37.32886189 10 39 C9.05125 39.4125 8.1025 39.825 7.125 40.25 C3.746611 42.14189784 3.20231311 42.48466547 2 46 C1.8021982 48.75177208 1.71709684 51.37582384 1.75 54.125 C1.75386719 54.90601074 1.75773437 55.68702148 1.76171875 56.49169922 C1.88489289 65.06085546 2.87639001 73.51273168 4 82 C-5.17626546 73.24366534 -10.30361483 62.42974015 -11.23828125 49.7734375 C-11.43663379 40.6909792 -10.09951698 32.9706485 -5.88671875 24.85546875 C-4.58158909 22.12447056 -4.68314292 19.97845655 -5 17 C-5.515625 16.484375 -6.03125 15.96875 -6.5625 15.4375 C-7.036875 14.963125 -7.51125 14.48875 -8 14 C-7.65411057 9.77726657 -6.08688298 7.41493018 -3.4375 4.1875 C-2.79683594 3.39730469 -2.15617187 2.60710938 -1.49609375 1.79296875 C-1.00238281 1.20128906 -0.50867188 0.60960937 0 0 Z " fill="#D79166" transform="translate(395,49)"/>
<path d="M0 0 C8.08946527 -0.17070384 8.08946527 -0.17070384 12 3 C16.15873934 7.63402383 16.60358031 12.09316788 17.44921875 18.02734375 C18.67451142 24.64044816 21.74902723 29.77639146 27 34 C32.26163718 37.33333921 37.06907258 39.17843573 43.25 40 C48.72019511 40.73217541 51.26185007 41.95875683 55 46 C56.4783226 48.95664519 56.06032783 51.74229737 56 55 C48.41848769 57.56276473 39.67819341 53.06863883 32.875 49.875 C26.299812 46.43500098 21.15643512 42.30020189 16 37 C15.45085937 36.48308594 14.90171875 35.96617187 14.3359375 35.43359375 C5.1505644 26.02718226 0.80114186 12.81826971 0 0 Z " fill="#F6D8AC" transform="translate(56,136)"/>
<path d="M0 0 C0.66 0.33 1.32 0.66 2 1 C1.72285156 1.72445312 1.44570312 2.44890625 1.16015625 3.1953125 C0.79792969 4.16210938 0.43570313 5.12890625 0.0625 6.125 C-0.29714844 7.07632812 -0.65679687 8.02765625 -1.02734375 9.0078125 C-6.06963222 24.51943086 -3.11883701 40.76232598 4 55 C-2.27 55 -8.54 55 -15 55 C-19.13252779 44.66868054 -18.77019711 30.26085255 -15 19.75 C-11.52369356 12.28237876 -6.89765585 4.70085232 0 0 Z " fill="#EAB68D" transform="translate(178,249)"/>
<path d="M0 0 C1.29847256 1.94770884 2.55193845 3.92646812 3.75 5.9375 C6.81487608 10.10913689 10.10596091 12.36865364 15 14 C17.39490986 14.06970052 19.79167691 14.08448003 22.1875 14.0625 C23.45980469 14.05347656 24.73210937 14.04445312 26.04296875 14.03515625 C27.01878906 14.02355469 27.99460938 14.01195312 29 14 C24.99577438 22.00845124 19.68220979 26.91909552 11.33203125 30.3046875 C5.83688244 31.94310708 1.64926555 31.86961275 -3.4375 29.1875 C-6.15288069 26.86949209 -7.80311108 25.24558148 -8.37109375 21.65234375 C-8.56337067 13.79161098 -6.83009297 7.09021638 -1.33203125 1.21875 C-0.89246094 0.8165625 -0.45289063 0.414375 0 0 Z " fill="#BE7F5C" transform="translate(187,165)"/>
<path d="M0 0 C0.33 0 0.66 0 1 0 C1.020625 0.99 1.04125 1.98 1.0625 3 C1.86405183 8.30092943 5.10466989 11.53220612 9 15 C13.41267743 18.18966516 17.81159323 21.27053108 23 23 C21.8246466 32.86678251 20.32140946 42.05771632 14 50 C11.75 49.9375 11.75 49.9375 9 49 C5.72894297 44.10283208 4.08317596 39.52249956 2.8125 33.8125 C2.64814453 33.11447266 2.48378906 32.41644531 2.31445312 31.69726562 C1.86856371 29.79997908 1.43378285 27.90009107 1 26 C0.81985352 25.372146 0.63970703 24.74429199 0.45410156 24.09741211 C-0.08382643 21.61282106 -0.11243478 19.33878209 -0.09765625 16.796875 C-0.09443359 15.8171875 -0.09121094 14.8375 -0.08789062 13.828125 C-0.07951172 12.81234375 -0.07113281 11.7965625 -0.0625 10.75 C-0.05798828 9.71875 -0.05347656 8.6875 -0.04882812 7.625 C-0.03706088 5.08327427 -0.02062011 2.54166681 0 0 Z " fill="#D69166" transform="translate(412,94)"/>
<path d="M0 0 C0.9590625 1.051875 0.9590625 1.051875 1.9375 2.125 C6.82463221 7.02605566 13.04764395 10.54379326 19 14 C13.52895379 22.20656931 2.06658249 29.58248345 -7.62890625 31.52734375 C-9.74467863 31.76905171 -11.87295448 31.89707844 -14 32 C-15.80212287 28.39575426 -14.96785951 24.75181495 -14 21 C-10.38759217 13.30577542 -5.41354495 6.5159994 0 0 Z " fill="#D79166" transform="translate(127,80)"/>
<path d="M0 0 C6.36610901 5.38056075 10.72510753 12.77449185 12 21 C12.08895063 22.91505483 12.13018139 24.83288749 12.125 26.75 C12.12886719 28.19632812 12.12886719 28.19632812 12.1328125 29.671875 C12 32 12 32 11 33 C6.76851057 33.72244941 4.39713708 32.90603375 1 30.5 C-6.09992531 24.68973608 -10.45335491 18.13115468 -12 9 C-11.93793198 5.08971447 -11.84196173 3.03626059 -9.375 0 C-5.68984781 -1.55164303 -3.81134012 -1.22738072 0 0 Z " fill="#D69165" transform="translate(87,255)"/>
<path d="M0 0 C0.27457031 0.55042969 0.54914063 1.10085937 0.83203125 1.66796875 C1.41017578 2.82232422 1.41017578 2.82232422 2 4 C2.41636719 4.84175781 2.83273437 5.68351563 3.26171875 6.55078125 C8.87728786 17.42806168 16.08219645 24.73273138 28.00390625 28.66015625 C30.44896089 29.07643757 32.77101083 29.09511828 35.25 29.0625 C36.14203125 29.05347656 37.0340625 29.04445312 37.953125 29.03515625 C38.62859375 29.02355469 39.3040625 29.01195312 40 29 C38.73090537 32.91304179 37.53743024 34.85610288 34 37 C27.48875324 39.17041559 23.05277955 38.32774205 16.9375 35.5 C7.68628475 30.50691031 3.02861827 23.98141397 0 14 C-1.04387233 9.54293984 -1.1521145 5.563435 -1 1 C-0.67 0.67 -0.34 0.34 0 0 Z " fill="#BD7F5C" transform="translate(325,150)"/>
<path d="M0 0 C0.0515625 0.73863281 0.103125 1.47726563 0.15625 2.23828125 C1.14597066 11.08953306 4.45167375 16.19567902 10 23 C12.22838057 27.45676114 11.72202455 33.66126832 10.28125 38.328125 C8.20936904 42.70580896 5.49581778 45.62592711 2 49 C2.08701172 47.33324219 2.08701172 47.33324219 2.17578125 45.6328125 C2.55145442 35.32151169 2.08544767 27.50923498 -5.25 19.5625 C-5.8275 19.046875 -6.405 18.53125 -7 18 C-8.35749398 13.92751805 -8.65831324 10.25371632 -8 6 C-6.09293178 2.3773067 -4.32226698 0 0 0 Z " fill="#EAB68D" transform="translate(269,49)"/>
<path d="M0 0 C-7.30913255 11.35199649 -14.65513134 17.50014817 -27 23 C-27.8146875 23.37253906 -28.629375 23.74507812 -29.46875 24.12890625 C-32.45679676 25.15720012 -35.16313689 25.41734969 -38.3125 25.625 C-39.38113281 25.69976562 -40.44976562 25.77453125 -41.55078125 25.8515625 C-42.76314453 25.92503906 -42.76314453 25.92503906 -44 26 C-41.43434187 23.34805292 -38.82904442 21.01985791 -35.875 18.8125 C-26.8423605 12.21440742 -26.8423605 12.21440742 -19.6796875 3.84375 C-17.14372175 1.06008526 -14.06132083 0.78783694 -10.5 0.1875 C-9.48486328 -0.01262695 -9.48486328 -0.01262695 -8.44921875 -0.21679688 C-5.16962018 -0.82161436 -3.21147056 -1.07049019 0 0 Z " fill="#D59065" transform="translate(184,94)"/>
<path d="M0 0 C2.32767432 13.69420072 2.32767432 13.69420072 -0.69140625 18.9375 C-2.2381788 20.57064056 -3.84358954 22.15004789 -5.5 23.671875 C-8.85061583 26.79213599 -11.16527044 30.36904117 -13.6875 34.1640625 C-14.120625 34.76992187 -14.55375 35.37578125 -15 36 C-15.33 36 -15.66 36 -16 36 C-16.93317046 23.86878398 -11.42374555 12.11662147 -3.75 2.9375 C-1.16553288 0 -1.16553288 0 0 0 Z " fill="#D38F65" transform="translate(120,48)"/>
<path d="M0 0 C0.33 0 0.66 0 1 0 C1.03738281 0.86882812 1.07476562 1.73765625 1.11328125 2.6328125 C1.42704789 12.44523709 1.42704789 12.44523709 6.53125 20.4609375 C7.97634475 21.69472122 9.48394267 22.85453447 11 24 C8.52964288 26.47035712 7.6039993 26.35042281 4.1875 26.4375 C0.12405192 26.37877965 -0.73974011 26.20714563 -4.0625 23.5625 C-4.701875 22.716875 -5.34125 21.87125 -6 21 C-6.33 20.67 -6.66 20.34 -7 20 C-8.11119584 13.74952338 -7.19618817 9.58402947 -3.5625 4.375 C-2.4230839 2.87879704 -1.24814331 1.40678023 0 0 Z " fill="#E9B68D" transform="translate(268,102)"/>
<path d="M0 0 C-1.11962199 1.64949657 -2.24586845 3.29449838 -3.375 4.9375 C-4.00148438 5.85402344 -4.62796875 6.77054687 -5.2734375 7.71484375 C-7 10 -7 10 -9 11 C-8.85892253 9.54119891 -8.71197585 8.08296449 -8.5625 6.625 C-8.48128906 5.81289062 -8.40007812 5.00078125 -8.31640625 4.1640625 C-8 2 -8 2 -7 0 C-4.0262656 -1.09036928 -3.11592499 -1.03864166 0 0 Z " fill="#D08D64" transform="translate(458,120)"/>
<path d="M0 0 C0.99 0.33 1.98 0.66 3 1 C0.42215154 3.64752004 -1.91648098 5.94432065 -5 8 C-3.62845496 5.04590299 -2.01136276 2.55991624 0 0 Z " fill="#DEA177" transform="translate(395,49)"/>
</svg>
